<svg width="600" height="160" viewBox="0 0 600 160" fill="none" xmlns="http://www.w3.org/2000/svg">
<rect width="600" height="160" fill="white"/>
<path d="M488.791 86.3912C493.503 92.0709 515.033 115.995 517.984 116L518 116C518 116 513.217 116 518.016 116C522.814 116 542.497 92.0709 547.209 86.3912C551.921 80.7115 556 73.3795 556 71.3864C556 69.3933 548.765 59.2275 545.49 59.2275C544.516 59.2275 542.119 61.5217 539.654 63.8813C538.719 64.7756 537.775 65.6794 536.894 66.4712C533.691 69.3522 521.999 80.5469 518 80.5469C514.001 80.5469 502.309 69.3522 499.106 66.4712C498.225 65.6794 497.281 64.7756 496.346 63.8813C493.881 61.5217 491.484 59.2275 490.51 59.2275C487.235 59.2275 480 69.3933 480 71.3864C480 73.3795 484.079 80.7115 488.791 86.3912Z" fill="#60A5FA"/>
<path d="M492.025 53.6858C492.025 55.6018 513.493 75.7707 517.984 75.8659V75.8662C517.989 75.8662 517.995 75.8662 518 75.8661C518.005 75.8662 518.01 75.8662 518.016 75.8662V75.8659C522.506 75.7707 543.975 55.6018 543.975 53.6858C543.975 51.7653 537.108 48.1924 532.477 46.5406C527.855 44.8919 522.733 44.0039 518.016 44L518.015 44C518.01 44 518.005 44 518 44C517.995 44 517.989 44 517.984 44H517.984C513.267 44.0039 508.144 44.8919 503.522 46.5406C498.892 48.1924 492.025 51.7653 492.025 53.6858Z" fill="#93C5FD"/>
<path d="M41.472 59V45.368H36.096V42.2H50.736V45.368H45.36V59H41.472ZM60.4119 45.896C61.4359 45.896 62.3479 46.104 63.1479 46.52C63.9639 46.92 64.6039 47.544 65.0679 48.392C65.5319 49.224 65.7639 50.296 65.7639 51.608V59H62.0199V52.184C62.0199 51.144 61.7879 50.376 61.3239 49.88C60.8759 49.384 60.2359 49.136 59.4039 49.136C58.8119 49.136 58.2759 49.264 57.7959 49.52C57.3319 49.76 56.9639 50.136 56.6919 50.648C56.4359 51.16 56.3079 51.816 56.3079 52.616V59H52.5639V41.192H56.3079V49.664L55.4679 48.584C55.9319 47.72 56.5959 47.056 57.4599 46.592C58.3239 46.128 59.3079 45.896 60.4119 45.896ZM75.6594 59.192C74.1874 59.192 72.8914 58.904 71.7714 58.328C70.6674 57.752 69.8114 56.968 69.2034 55.976C68.5954 54.968 68.2914 53.824 68.2914 52.544C68.2914 51.248 68.5874 50.104 69.1794 49.112C69.7874 48.104 70.6114 47.32 71.6514 46.76C72.6914 46.184 73.8674 45.896 75.1794 45.896C76.4434 45.896 77.5794 46.168 78.5874 46.712C79.6114 47.24 80.4194 48.008 81.0114 49.016C81.6034 50.008 81.8994 51.2 81.8994 52.592C81.8994 52.736 81.8914 52.904 81.8754 53.096C81.8594 53.272 81.8434 53.44 81.8274 53.6H71.3394V51.416H79.8594L78.4194 52.064C78.4194 51.392 78.2834 50.808 78.0114 50.312C77.7394 49.816 77.3634 49.432 76.8834 49.16C76.4034 48.872 75.8434 48.728 75.2034 48.728C74.5634 48.728 73.9954 48.872 73.4994 49.16C73.0194 49.432 72.6434 49.824 72.3714 50.336C72.0994 50.832 71.9634 51.424 71.9634 52.112V52.688C71.9634 53.392 72.1154 54.016 72.4194 54.56C72.7394 55.088 73.1794 55.496 73.7394 55.784C74.3154 56.056 74.9874 56.192 75.7554 56.192C76.4434 56.192 77.0434 56.088 77.5554 55.88C78.0834 55.672 78.5634 55.36 78.9954 54.944L80.9874 57.104C80.3954 57.776 79.6514 58.296 78.7554 58.664C77.8594 59.016 76.8274 59.192 75.6594 59.192ZM96.4929 59L89.2449 42.2H93.4449L99.7809 57.08H97.3089L103.741 42.2H107.605L100.333 59H96.4929ZM108.955 59V46.088H112.699V59H108.955ZM110.827 44.288C110.139 44.288 109.579 44.088 109.147 43.688C108.715 43.288 108.499 42.792 108.499 42.2C108.499 41.608 108.715 41.112 109.147 40.712C109.579 40.312 110.139 40.112 110.827 40.112C111.515 40.112 112.075 40.304 112.507 40.688C112.939 41.056 113.155 41.536 113.155 42.128C113.155 42.752 112.939 43.272 112.507 43.688C112.091 44.088 111.531 44.288 110.827 44.288ZM123.805 59.192C122.669 59.192 121.693 58.952 120.877 58.472C120.061 57.992 119.437 57.264 119.005 56.288C118.573 55.296 118.357 54.048 118.357 52.544C118.357 51.024 118.581 49.776 119.029 48.8C119.493 47.824 120.133 47.096 120.949 46.616C121.765 46.136 122.717 45.896 123.805 45.896C125.021 45.896 126.109 46.168 127.069 46.712C128.045 47.256 128.813 48.024 129.373 49.016C129.949 50.008 130.237 51.184 130.237 52.544C130.237 53.888 129.949 55.056 129.373 56.048C128.813 57.04 128.045 57.816 127.069 58.376C126.109 58.92 125.021 59.192 123.805 59.192ZM116.173 59V41.192H119.917V48.704L119.677 52.52L119.749 56.36V59H116.173ZM123.157 56.12C123.781 56.12 124.333 55.976 124.813 55.688C125.309 55.4 125.701 54.992 125.989 54.464C126.293 53.92 126.445 53.28 126.445 52.544C126.445 51.792 126.293 51.152 125.989 50.624C125.701 50.096 125.309 49.688 124.813 49.4C124.333 49.112 123.781 48.968 123.157 48.968C122.533 48.968 121.973 49.112 121.477 49.4C120.981 49.688 120.589 50.096 120.301 50.624C120.013 51.152 119.869 51.792 119.869 52.544C119.869 53.28 120.013 53.92 120.301 54.464C120.589 54.992 120.981 55.4 121.477 55.688C121.973 55.976 122.533 56.12 123.157 56.12ZM139.152 59.192C137.68 59.192 136.384 58.904 135.264 58.328C134.16 57.752 133.304 56.968 132.696 55.976C132.088 54.968 131.784 53.824 131.784 52.544C131.784 51.248 132.08 50.104 132.672 49.112C133.28 48.104 134.104 47.32 135.144 46.76C136.184 46.184 137.36 45.896 138.672 45.896C139.936 45.896 141.072 46.168 142.08 46.712C143.104 47.24 143.912 48.008 144.504 49.016C145.096 50.008 145.392 51.2 145.392 52.592C145.392 52.736 145.384 52.904 145.368 53.096C145.352 53.272 145.336 53.44 145.32 53.6H134.832V51.416H143.352L141.912 52.064C141.912 51.392 141.776 50.808 141.504 50.312C141.232 49.816 140.856 49.432 140.376 49.16C139.896 48.872 139.336 48.728 138.696 48.728C138.056 48.728 137.488 48.872 136.992 49.16C136.512 49.432 136.136 49.824 135.864 50.336C135.592 50.832 135.456 51.424 135.456 52.112V52.688C135.456 53.392 135.608 54.016 135.912 54.56C136.232 55.088 136.672 55.496 137.232 55.784C137.808 56.056 138.48 56.192 139.248 56.192C139.936 56.192 140.536 56.088 141.048 55.88C141.576 55.672 142.056 55.36 142.488 54.944L144.48 57.104C143.888 57.776 143.144 58.296 142.248 58.664C141.352 59.016 140.32 59.192 139.152 59.192ZM152.228 59.192C151.124 59.192 150.06 59.064 149.036 58.808C148.028 58.536 147.228 58.2 146.636 57.8L147.884 55.112C148.476 55.48 149.172 55.784 149.972 56.024C150.788 56.248 151.588 56.36 152.372 56.36C153.236 56.36 153.844 56.256 154.196 56.048C154.564 55.84 154.748 55.552 154.748 55.184C154.748 54.88 154.604 54.656 154.316 54.512C154.044 54.352 153.676 54.232 153.212 54.152C152.748 54.072 152.236 53.992 151.676 53.912C151.132 53.832 150.58 53.728 150.02 53.6C149.46 53.456 148.948 53.248 148.484 52.976C148.02 52.704 147.644 52.336 147.356 51.872C147.084 51.408 146.948 50.808 146.948 50.072C146.948 49.256 147.18 48.536 147.644 47.912C148.124 47.288 148.812 46.8 149.708 46.448C150.604 46.08 151.676 45.896 152.924 45.896C153.804 45.896 154.7 45.992 155.612 46.184C156.524 46.376 157.284 46.656 157.892 47.024L156.644 49.688C156.02 49.32 155.388 49.072 154.748 48.944C154.124 48.8 153.516 48.728 152.924 48.728C152.092 48.728 151.484 48.84 151.1 49.064C150.716 49.288 150.524 49.576 150.524 49.928C150.524 50.248 150.66 50.488 150.932 50.648C151.22 50.808 151.596 50.936 152.06 51.032C152.524 51.128 153.028 51.216 153.572 51.296C154.132 51.36 154.692 51.464 155.252 51.608C155.812 51.752 156.316 51.96 156.764 52.232C157.228 52.488 157.604 52.848 157.892 53.312C158.18 53.76 158.324 54.352 158.324 55.088C158.324 55.888 158.084 56.6 157.604 57.224C157.124 57.832 156.428 58.312 155.516 58.664C154.62 59.016 153.524 59.192 152.228 59.192Z" fill="#1E293B"/>
<path d="M39.708 85.096C39.068 85.096 38.456 85 37.872 84.808C37.288 84.608 36.828 84.352 36.492 84.04L36.936 83.104C37.256 83.384 37.664 83.616 38.16 83.8C38.656 83.984 39.172 84.076 39.708 84.076C40.196 84.076 40.592 84.02 40.896 83.908C41.2 83.796 41.424 83.644 41.568 83.452C41.712 83.252 41.784 83.028 41.784 82.78C41.784 82.492 41.688 82.26 41.496 82.084C41.312 81.908 41.068 81.768 40.764 81.664C40.468 81.552 40.14 81.456 39.78 81.376C39.42 81.296 39.056 81.204 38.688 81.1C38.328 80.988 37.996 80.848 37.692 80.68C37.396 80.512 37.156 80.288 36.972 80.008C36.788 79.72 36.696 79.352 36.696 78.904C36.696 78.472 36.808 78.076 37.032 77.716C37.264 77.348 37.616 77.056 38.088 76.84C38.568 76.616 39.176 76.504 39.912 76.504C40.4 76.504 40.884 76.568 41.364 76.696C41.844 76.824 42.26 77.008 42.612 77.248L42.216 78.208C41.856 77.968 41.476 77.796 41.076 77.692C40.676 77.58 40.288 77.524 39.912 77.524C39.44 77.524 39.052 77.584 38.748 77.704C38.444 77.824 38.22 77.984 38.076 78.184C37.94 78.384 37.872 78.608 37.872 78.856C37.872 79.152 37.964 79.388 38.148 79.564C38.34 79.74 38.584 79.88 38.88 79.984C39.184 80.088 39.516 80.184 39.876 80.272C40.236 80.352 40.596 80.444 40.956 80.548C41.324 80.652 41.656 80.788 41.952 80.956C42.256 81.124 42.5 81.348 42.684 81.628C42.868 81.908 42.96 82.268 42.96 82.708C42.96 83.132 42.844 83.528 42.612 83.896C42.38 84.256 42.02 84.548 41.532 84.772C41.052 84.988 40.444 85.096 39.708 85.096ZM47.9411 78.58C48.4611 78.58 48.9171 78.68 49.3091 78.88C49.7091 79.08 50.0211 79.384 50.2451 79.792C50.4691 80.2 50.5811 80.716 50.5811 81.34V85H49.4291V81.472C49.4291 80.856 49.2771 80.392 48.9731 80.08C48.6771 79.768 48.2571 79.612 47.7131 79.612C47.3051 79.612 46.9491 79.692 46.6451 79.852C46.3411 80.012 46.1051 80.248 45.9371 80.56C45.7771 80.872 45.6971 81.26 45.6971 81.724V85H44.5451V76.096H45.6971V80.356L45.4691 79.9C45.6771 79.484 45.9971 79.16 46.4291 78.928C46.8611 78.696 47.3651 78.58 47.9411 78.58ZM56.6611 85V83.656L56.6011 83.404V81.112C56.6011 80.624 56.4571 80.248 56.1691 79.984C55.8891 79.712 55.4651 79.576 54.8971 79.576C54.5211 79.576 54.1531 79.64 53.7931 79.768C53.4331 79.888 53.1291 80.052 52.8811 80.26L52.4011 79.396C52.7291 79.132 53.1211 78.932 53.5771 78.796C54.0411 78.652 54.5251 78.58 55.0291 78.58C55.9011 78.58 56.5731 78.792 57.0451 79.216C57.5171 79.64 57.7531 80.288 57.7531 81.16V85H56.6611ZM54.5731 85.072C54.1011 85.072 53.6851 84.992 53.3251 84.832C52.9731 84.672 52.7011 84.452 52.5091 84.172C52.3171 83.884 52.2211 83.56 52.2211 83.2C52.2211 82.856 52.3011 82.544 52.4611 82.264C52.6291 81.984 52.8971 81.76 53.2651 81.592C53.6411 81.424 54.1451 81.34 54.7771 81.34H56.7931V82.168H54.8251C54.2491 82.168 53.8611 82.264 53.6611 82.456C53.4611 82.648 53.3611 82.88 53.3611 83.152C53.3611 83.464 53.4851 83.716 53.7331 83.908C53.9811 84.092 54.3251 84.184 54.7651 84.184C55.1971 84.184 55.5731 84.088 55.8931 83.896C56.2211 83.704 56.4571 83.424 56.6011 83.056L56.8291 83.848C56.6771 84.224 56.4091 84.524 56.0251 84.748C55.6411 84.964 55.1571 85.072 54.5731 85.072ZM59.885 85V78.64H60.989V80.368L60.881 79.936C61.057 79.496 61.353 79.16 61.769 78.928C62.185 78.696 62.697 78.58 63.305 78.58V79.696C63.257 79.688 63.209 79.684 63.161 79.684C63.121 79.684 63.081 79.684 63.041 79.684C62.425 79.684 61.937 79.868 61.577 80.236C61.217 80.604 61.037 81.136 61.037 81.832V85H59.885ZM67.4982 85.072C66.8182 85.072 66.2182 84.932 65.6982 84.652C65.1862 84.372 64.7862 83.988 64.4982 83.5C64.2182 83.012 64.0782 82.452 64.0782 81.82C64.0782 81.188 64.2142 80.628 64.4862 80.14C64.7662 79.652 65.1462 79.272 65.6262 79C66.1142 78.72 66.6622 78.58 67.2702 78.58C67.8862 78.58 68.4302 78.716 68.9022 78.988C69.3742 79.26 69.7422 79.644 70.0062 80.14C70.2782 80.628 70.4142 81.2 70.4142 81.856C70.4142 81.904 70.4102 81.96 70.4022 82.024C70.4022 82.088 70.3982 82.148 70.3902 82.204H64.9782V81.376H69.7902L69.3222 81.664C69.3302 81.256 69.2462 80.892 69.0702 80.572C68.8942 80.252 68.6502 80.004 68.3382 79.828C68.0342 79.644 67.6782 79.552 67.2702 79.552C66.8702 79.552 66.5142 79.644 66.2022 79.828C65.8902 80.004 65.6462 80.256 65.4702 80.584C65.2942 80.904 65.2062 81.272 65.2062 81.688V81.88C65.2062 82.304 65.3022 82.684 65.4942 83.02C65.6942 83.348 65.9702 83.604 66.3222 83.788C66.6742 83.972 67.0782 84.064 67.5342 84.064C67.9102 84.064 68.2502 84 68.5542 83.872C68.8662 83.744 69.1382 83.552 69.3702 83.296L70.0062 84.04C69.7182 84.376 69.3582 84.632 68.9262 84.808C68.5022 84.984 68.0262 85.072 67.4982 85.072ZM77.4325 85V81.784L77.7085 82.528L74.0965 76.6H75.3805L78.4165 81.604H77.7205L80.7685 76.6H81.9565L78.3565 82.528L78.6205 81.784V85H77.4325ZM85.0152 85.072C84.3752 85.072 83.8072 84.932 83.3112 84.652C82.8152 84.372 82.4232 83.988 82.1352 83.5C81.8472 83.004 81.7032 82.444 81.7032 81.82C81.7032 81.188 81.8472 80.628 82.1352 80.14C82.4232 79.652 82.8152 79.272 83.3112 79C83.8072 78.72 84.3752 78.58 85.0152 78.58C85.6472 78.58 86.2112 78.72 86.7072 79C87.2112 79.272 87.6032 79.652 87.8832 80.14C88.1712 80.62 88.3152 81.18 88.3152 81.82C88.3152 82.452 88.1712 83.012 87.8832 83.5C87.6032 83.988 87.2112 84.372 86.7072 84.652C86.2112 84.932 85.6472 85.072 85.0152 85.072ZM85.0152 84.064C85.4232 84.064 85.7872 83.972 86.1072 83.788C86.4352 83.604 86.6912 83.344 86.8752 83.008C87.0592 82.664 87.1512 82.268 87.1512 81.82C87.1512 81.364 87.0592 80.972 86.8752 80.644C86.6912 80.308 86.4352 80.048 86.1072 79.864C85.7872 79.68 85.4232 79.588 85.0152 79.588C84.6072 79.588 84.2432 79.68 83.9232 79.864C83.6032 80.048 83.3472 80.308 83.1552 80.644C82.9632 80.972 82.8672 81.364 82.8672 81.82C82.8672 82.268 82.9632 82.664 83.1552 83.008C83.3472 83.344 83.6032 83.604 83.9232 83.788C84.2432 83.972 84.6072 84.064 85.0152 84.064ZM92.5844 85.072C92.0404 85.072 91.5604 84.972 91.1444 84.772C90.7364 84.572 90.4164 84.268 90.1844 83.86C89.9604 83.444 89.8484 82.924 89.8484 82.3V78.64H91.0004V82.168C91.0004 82.792 91.1484 83.26 91.4444 83.572C91.7484 83.884 92.1724 84.04 92.7164 84.04C93.1164 84.04 93.4644 83.96 93.7604 83.8C94.0564 83.632 94.2844 83.392 94.4444 83.08C94.6044 82.76 94.6844 82.376 94.6844 81.928V78.64H95.8364V85H94.7444V83.284L94.9244 83.74C94.7164 84.164 94.4044 84.492 93.9884 84.724C93.5724 84.956 93.1044 85.072 92.5844 85.072ZM98.0295 85V78.64H99.1335V80.368L99.0255 79.936C99.2015 79.496 99.4975 79.16 99.9135 78.928C100.33 78.696 100.842 78.58 101.45 78.58V79.696C101.402 79.688 101.354 79.684 101.306 79.684C101.266 79.684 101.226 79.684 101.186 79.684C100.57 79.684 100.082 79.868 99.7215 80.236C99.3615 80.604 99.1815 81.136 99.1815 81.832V85H98.0295ZM108.766 85L105.07 76.6H106.366L109.762 84.352H109.018L112.438 76.6H113.638L109.954 85H108.766ZM114.541 85V78.64H115.693V85H114.541ZM115.117 77.416C114.893 77.416 114.705 77.344 114.553 77.2C114.409 77.056 114.337 76.88 114.337 76.672C114.337 76.456 114.409 76.276 114.553 76.132C114.705 75.988 114.893 75.916 115.117 75.916C115.341 75.916 115.525 75.988 115.669 76.132C115.821 76.268 115.897 76.44 115.897 76.648C115.897 76.864 115.825 77.048 115.681 77.2C115.537 77.344 115.349 77.416 115.117 77.416ZM121.265 85.072C120.721 85.072 120.229 84.952 119.789 84.712C119.357 84.464 119.013 84.1 118.757 83.62C118.509 83.14 118.385 82.54 118.385 81.82C118.385 81.1 118.513 80.5 118.769 80.02C119.033 79.54 119.381 79.18 119.813 78.94C120.253 78.7 120.737 78.58 121.265 78.58C121.889 78.58 122.441 78.716 122.921 78.988C123.401 79.26 123.781 79.64 124.061 80.128C124.341 80.608 124.481 81.172 124.481 81.82C124.481 82.468 124.341 83.036 124.061 83.524C123.781 84.012 123.401 84.392 122.921 84.664C122.441 84.936 121.889 85.072 121.265 85.072ZM117.893 85V76.096H119.045V80.332L118.925 81.808L118.997 83.284V85H117.893ZM121.169 84.064C121.577 84.064 121.941 83.972 122.261 83.788C122.589 83.604 122.845 83.344 123.029 83.008C123.221 82.664 123.317 82.268 123.317 81.82C123.317 81.364 123.221 80.972 123.029 80.644C122.845 80.308 122.589 80.048 122.261 79.864C121.941 79.68 121.577 79.588 121.169 79.588C120.769 79.588 120.405 79.68 120.077 79.864C119.757 80.048 119.501 80.308 119.309 80.644C119.125 80.972 119.033 81.364 119.033 81.82C119.033 82.268 119.125 82.664 119.309 83.008C119.501 83.344 119.757 83.604 120.077 83.788C120.405 83.972 120.769 84.064 121.169 84.064ZM128.904 85.072C128.224 85.072 127.624 84.932 127.104 84.652C126.592 84.372 126.192 83.988 125.904 83.5C125.624 83.012 125.484 82.452 125.484 81.82C125.484 81.188 125.62 80.628 125.892 80.14C126.172 79.652 126.552 79.272 127.032 79C127.52 78.72 128.068 78.58 128.676 78.58C129.292 78.58 129.836 78.716 130.308 78.988C130.78 79.26 131.148 79.644 131.412 80.14C131.684 80.628 131.82 81.2 131.82 81.856C131.82 81.904 131.816 81.96 131.808 82.024C131.808 82.088 131.804 82.148 131.796 82.204H126.384V81.376H131.196L130.728 81.664C130.736 81.256 130.652 80.892 130.476 80.572C130.3 80.252 130.056 80.004 129.744 79.828C129.44 79.644 129.084 79.552 128.676 79.552C128.276 79.552 127.92 79.644 127.608 79.828C127.296 80.004 127.052 80.256 126.876 80.584C126.7 80.904 126.612 81.272 126.612 81.688V81.88C126.612 82.304 126.708 82.684 126.9 83.02C127.1 83.348 127.376 83.604 127.728 83.788C128.08 83.972 128.484 84.064 128.94 84.064C129.316 84.064 129.656 84 129.96 83.872C130.272 83.744 130.544 83.552 130.776 83.296L131.412 84.04C131.124 84.376 130.764 84.632 130.332 84.808C129.908 84.984 129.432 85.072 128.904 85.072ZM135.244 85.072C134.716 85.072 134.212 85 133.732 84.856C133.26 84.712 132.888 84.536 132.616 84.328L133.096 83.416C133.368 83.6 133.704 83.756 134.104 83.884C134.504 84.012 134.912 84.076 135.328 84.076C135.864 84.076 136.248 84 136.48 83.848C136.72 83.696 136.84 83.484 136.84 83.212C136.84 83.012 136.768 82.856 136.624 82.744C136.48 82.632 136.288 82.548 136.048 82.492C135.816 82.436 135.556 82.388 135.268 82.348C134.98 82.3 134.692 82.244 134.404 82.18C134.116 82.108 133.852 82.012 133.612 81.892C133.372 81.764 133.18 81.592 133.036 81.376C132.892 81.152 132.82 80.856 132.82 80.488C132.82 80.104 132.928 79.768 133.144 79.48C133.36 79.192 133.664 78.972 134.056 78.82C134.456 78.66 134.928 78.58 135.472 78.58C135.888 78.58 136.308 78.632 136.732 78.736C137.164 78.832 137.516 78.972 137.788 79.156L137.296 80.068C137.008 79.876 136.708 79.744 136.396 79.672C136.084 79.6 135.772 79.564 135.46 79.564C134.956 79.564 134.58 79.648 134.332 79.816C134.084 79.976 133.96 80.184 133.96 80.44C133.96 80.656 134.032 80.824 134.176 80.944C134.328 81.056 134.52 81.144 134.752 81.208C134.992 81.272 135.256 81.328 135.544 81.376C135.832 81.416 136.12 81.472 136.408 81.544C136.696 81.608 136.956 81.7 137.188 81.82C137.428 81.94 137.62 82.108 137.764 82.324C137.916 82.54 137.992 82.828 137.992 83.188C137.992 83.572 137.88 83.904 137.656 84.184C137.432 84.464 137.116 84.684 136.708 84.844C136.3 84.996 135.812 85.072 135.244 85.072ZM144.755 85L141.947 76.6H143.183L145.763 84.352H145.139L147.815 76.6H148.919L151.535 84.352H150.935L153.551 76.6H154.691L151.883 85H150.623L148.174 77.812H148.499L146.039 85H144.755ZM155.99 85V78.64H157.142V85H155.99ZM156.566 77.416C156.342 77.416 156.154 77.344 156.002 77.2C155.858 77.056 155.786 76.88 155.786 76.672C155.786 76.456 155.858 76.276 156.002 76.132C156.154 75.988 156.342 75.916 156.566 75.916C156.79 75.916 156.974 75.988 157.118 76.132C157.27 76.268 157.346 76.44 157.346 76.648C157.346 76.864 157.274 77.048 157.13 77.2C156.986 77.344 156.798 77.416 156.566 77.416ZM161.526 85.072C160.886 85.072 160.39 84.9 160.038 84.556C159.686 84.212 159.51 83.72 159.51 83.08V77.248H160.662V83.032C160.662 83.376 160.746 83.64 160.914 83.824C161.09 84.008 161.338 84.1 161.658 84.1C162.018 84.1 162.318 84 162.558 83.8L162.918 84.628C162.742 84.78 162.53 84.892 162.282 84.964C162.042 85.036 161.79 85.072 161.526 85.072ZM158.43 79.588V78.64H162.486V79.588H158.43ZM167.707 78.58C168.227 78.58 168.683 78.68 169.075 78.88C169.475 79.08 169.787 79.384 170.011 79.792C170.235 80.2 170.347 80.716 170.347 81.34V85H169.195V81.472C169.195 80.856 169.043 80.392 168.739 80.08C168.443 79.768 168.023 79.612 167.479 79.612C167.071 79.612 166.715 79.692 166.411 79.852C166.107 80.012 165.871 80.248 165.703 80.56C165.543 80.872 165.463 81.26 165.463 81.724V85H164.311V76.096H165.463V80.356L165.235 79.9C165.443 79.484 165.763 79.16 166.195 78.928C166.627 78.696 167.131 78.58 167.707 78.58ZM177.537 85V77.644H174.657V76.6H181.605V77.644H178.725V85H177.537ZM186.14 78.58C186.66 78.58 187.116 78.68 187.508 78.88C187.908 79.08 188.22 79.384 188.444 79.792C188.668 80.2 188.78 80.716 188.78 81.34V85H187.628V81.472C187.628 80.856 187.476 80.392 187.172 80.08C186.876 79.768 186.456 79.612 185.912 79.612C185.504 79.612 185.148 79.692 184.844 79.852C184.54 80.012 184.304 80.248 184.136 80.56C183.976 80.872 183.896 81.26 183.896 81.724V85H182.744V76.096H183.896V80.356L183.668 79.9C183.876 79.484 184.196 79.16 184.628 78.928C185.06 78.696 185.564 78.58 186.14 78.58ZM193.744 85.072C193.064 85.072 192.464 84.932 191.944 84.652C191.432 84.372 191.032 83.988 190.744 83.5C190.464 83.012 190.324 82.452 190.324 81.82C190.324 81.188 190.46 80.628 190.732 80.14C191.012 79.652 191.392 79.272 191.872 79C192.36 78.72 192.908 78.58 193.516 78.58C194.132 78.58 194.676 78.716 195.148 78.988C195.62 79.26 195.988 79.644 196.252 80.14C196.524 80.628 196.66 81.2 196.66 81.856C196.66 81.904 196.656 81.96 196.648 82.024C196.648 82.088 196.644 82.148 196.636 82.204H191.224V81.376H196.036L195.568 81.664C195.576 81.256 195.492 80.892 195.316 80.572C195.14 80.252 194.896 80.004 194.584 79.828C194.28 79.644 193.924 79.552 193.516 79.552C193.116 79.552 192.76 79.644 192.448 79.828C192.136 80.004 191.892 80.256 191.716 80.584C191.54 80.904 191.452 81.272 191.452 81.688V81.88C191.452 82.304 191.548 82.684 191.74 83.02C191.94 83.348 192.216 83.604 192.568 83.788C192.92 83.972 193.324 84.064 193.78 84.064C194.156 84.064 194.496 84 194.8 83.872C195.112 83.744 195.384 83.552 195.616 83.296L196.252 84.04C195.964 84.376 195.604 84.632 195.172 84.808C194.748 84.984 194.272 85.072 193.744 85.072ZM203.583 85L200.775 76.6H202.011L204.591 84.352H203.967L206.643 76.6H207.747L210.363 84.352H209.763L212.379 76.6H213.519L210.711 85H209.451L207.003 77.812H207.327L204.867 85H203.583ZM217.062 85.072C216.422 85.072 215.854 84.932 215.358 84.652C214.862 84.372 214.47 83.988 214.182 83.5C213.894 83.004 213.75 82.444 213.75 81.82C213.75 81.188 213.894 80.628 214.182 80.14C214.47 79.652 214.862 79.272 215.358 79C215.854 78.72 216.422 78.58 217.062 78.58C217.694 78.58 218.258 78.72 218.754 79C219.258 79.272 219.65 79.652 219.93 80.14C220.218 80.62 220.362 81.18 220.362 81.82C220.362 82.452 220.218 83.012 219.93 83.5C219.65 83.988 219.258 84.372 218.754 84.652C218.258 84.932 217.694 85.072 217.062 85.072ZM217.062 84.064C217.47 84.064 217.834 83.972 218.154 83.788C218.482 83.604 218.738 83.344 218.922 83.008C219.106 82.664 219.198 82.268 219.198 81.82C219.198 81.364 219.106 80.972 218.922 80.644C218.738 80.308 218.482 80.048 218.154 79.864C217.834 79.68 217.47 79.588 217.062 79.588C216.654 79.588 216.29 79.68 215.97 79.864C215.65 80.048 215.394 80.308 215.202 80.644C215.01 80.972 214.914 81.364 214.914 81.82C214.914 82.268 215.01 82.664 215.202 83.008C215.394 83.344 215.65 83.604 215.97 83.788C216.29 83.972 216.654 84.064 217.062 84.064ZM221.955 85V78.64H223.059V80.368L222.951 79.936C223.127 79.496 223.423 79.16 223.839 78.928C224.255 78.696 224.767 78.58 225.375 78.58V79.696C225.327 79.688 225.279 79.684 225.231 79.684C225.191 79.684 225.151 79.684 225.111 79.684C224.495 79.684 224.007 79.868 223.647 80.236C223.287 80.604 223.107 81.136 223.107 81.832V85H221.955ZM226.795 85V76.096H227.947V85H226.795ZM232.775 85.072C232.159 85.072 231.607 84.936 231.119 84.664C230.639 84.392 230.259 84.012 229.979 83.524C229.699 83.036 229.559 82.468 229.559 81.82C229.559 81.172 229.699 80.608 229.979 80.128C230.259 79.64 230.639 79.26 231.119 78.988C231.607 78.716 232.159 78.58 232.775 78.58C233.311 78.58 233.795 78.7 234.227 78.94C234.659 79.18 235.003 79.54 235.259 80.02C235.523 80.5 235.655 81.1 235.655 81.82C235.655 82.54 235.527 83.14 235.271 83.62C235.023 84.1 234.683 84.464 234.251 84.712C233.819 84.952 233.327 85.072 232.775 85.072ZM232.871 84.064C233.271 84.064 233.631 83.972 233.951 83.788C234.279 83.604 234.535 83.344 234.719 83.008C234.911 82.664 235.007 82.268 235.007 81.82C235.007 81.364 234.911 80.972 234.719 80.644C234.535 80.308 234.279 80.048 233.951 79.864C233.631 79.68 233.271 79.588 232.871 79.588C232.463 79.588 232.099 79.68 231.779 79.864C231.459 80.048 231.203 80.308 231.011 80.644C230.819 80.972 230.723 81.364 230.723 81.82C230.723 82.268 230.819 82.664 231.011 83.008C231.203 83.344 231.459 83.604 231.779 83.788C232.099 83.972 232.463 84.064 232.871 84.064ZM235.043 85V83.284L235.115 81.808L234.995 80.332V76.096H236.147V85H235.043Z" fill="#94A3B8"/>
</svg>
