<svg width="1024" height="1024" viewBox="0 0 1024 1024" fill="none" xmlns="http://www.w3.org/2000/svg">
<path d="M162.375 592.373C218.858 664.236 476.939 966.941 512.311 967L512.5 967C512.5 967 455.172 967 512.689 967C570.206 967 806.142 664.236 862.625 592.373C919.109 520.509 968 427.739 968 402.521C968 377.303 881.27 248.678 842.019 248.678C830.348 248.678 801.614 277.705 772.059 307.561C760.858 318.876 749.538 330.311 738.985 340.33C700.588 376.782 560.438 518.426 512.5 518.426C464.562 518.426 324.412 376.782 286.015 340.33C275.462 330.311 264.142 318.876 252.941 307.561C223.386 277.705 194.652 248.678 182.981 248.678C143.73 248.678 57 377.303 57 402.521C57 427.739 105.891 520.509 162.375 592.373Z" fill="#60A5FA"/>
<path d="M201.142 178.552C201.142 202.794 458.482 457.987 512.311 459.191V459.195C512.373 459.195 512.436 459.195 512.5 459.194C512.563 459.195 512.626 459.195 512.689 459.195V459.191C566.518 457.987 823.858 202.794 823.858 178.552C823.858 154.253 741.544 109.046 686.04 88.146C630.638 67.2844 569.236 56.0498 512.689 56.0002L512.687 56C512.624 56 512.562 56 512.5 56C512.438 56 512.375 56 512.313 56H512.311C455.763 56.0496 394.362 67.2844 338.96 88.146C283.455 109.046 201.142 154.253 201.142 178.552Z" fill="#93C5FD"/>
</svg>
